<svg xmlns="http://www.w3.org/2000/svg" xmlns:xlink="http://www.w3.org/1999/xlink" width="60" zoomAndPan="magnify" viewBox="0 0 45 30.000001" height="40" preserveAspectRatio="xMidYMid meet" version="1.0"><defs><g/><clipPath id="3bd66e7797"><path d="M 0.726562 0 L 44.273438 0 L 44.273438 29.03125 L 0.726562 29.03125 Z M 0.726562 0 " clip-rule="nonzero"/></clipPath><clipPath id="723eb04c78"><path d="M 0.726562 4.425781 L 44.273438 4.425781 L 44.273438 29.03125 L 0.726562 29.03125 Z M 0.726562 4.425781 " clip-rule="nonzero"/></clipPath><clipPath id="f79e4ec6f8"><path d="M 3.328125 4.425781 L 41.671875 4.425781 C 42.363281 4.425781 43.023438 4.703125 43.511719 5.191406 C 44 5.675781 44.273438 6.339844 44.273438 7.03125 L 44.273438 26.429688 C 44.273438 27.867188 43.109375 29.03125 41.671875 29.03125 L 3.328125 29.03125 C 2.636719 29.03125 1.976562 28.757812 1.488281 28.269531 C 1 27.78125 0.726562 27.121094 0.726562 26.429688 L 0.726562 7.03125 C 0.726562 6.339844 1 5.675781 1.488281 5.191406 C 1.976562 4.703125 2.636719 4.425781 3.328125 4.425781 Z M 3.328125 4.425781 " clip-rule="nonzero"/></clipPath></defs><g clip-path="url(#3bd66e7797)"><path fill="#ffffff" d="M 0.726562 0 L 44.273438 0 L 44.273438 29.03125 L 0.726562 29.03125 Z M 0.726562 0 " fill-opacity="1" fill-rule="nonzero"/><path fill="#ffffff" d="M 0.726562 0 L 44.273438 0 L 44.273438 29.03125 L 0.726562 29.03125 Z M 0.726562 0 " fill-opacity="1" fill-rule="nonzero"/></g><g clip-path="url(#723eb04c78)"><g clip-path="url(#f79e4ec6f8)"><path fill="#f39d3c" d="M 0.726562 4.425781 L 44.265625 4.425781 L 44.265625 29.03125 L 0.726562 29.03125 Z M 0.726562 4.425781 " fill-opacity="1" fill-rule="nonzero"/></g></g><g fill="#ffffff" fill-opacity="1"><g transform="translate(20.311239, 21.447579)"><g><path d="M 0.4375 -7.25 L 0.4375 -8.8125 L 3.34375 -8.8125 L 3.34375 0 L 1.609375 0 L 1.609375 -7.25 Z M 0.4375 -7.25 "/></g></g></g></svg>