<svg xmlns="http://www.w3.org/2000/svg" xmlns:xlink="http://www.w3.org/1999/xlink" width="60" zoomAndPan="magnify" viewBox="0 0 45 30.000001" height="40" preserveAspectRatio="xMidYMid meet" version="1.0"><defs><g/><clipPath id="ea062abf29"><path d="M 0.726562 0 L 44.273438 0 L 44.273438 29.03125 L 0.726562 29.03125 Z M 0.726562 0 " clip-rule="nonzero"/></clipPath><clipPath id="3c818dab8b"><path d="M 0.726562 4.425781 L 44.273438 4.425781 L 44.273438 29.03125 L 0.726562 29.03125 Z M 0.726562 4.425781 " clip-rule="nonzero"/></clipPath><clipPath id="6b12f477e2"><path d="M 3.328125 4.425781 L 41.671875 4.425781 C 42.363281 4.425781 43.023438 4.703125 43.511719 5.191406 C 44 5.675781 44.273438 6.339844 44.273438 7.03125 L 44.273438 26.429688 C 44.273438 27.867188 43.109375 29.03125 41.671875 29.03125 L 3.328125 29.03125 C 2.636719 29.03125 1.976562 28.757812 1.488281 28.269531 C 1 27.78125 0.726562 27.121094 0.726562 26.429688 L 0.726562 7.03125 C 0.726562 6.339844 1 5.675781 1.488281 5.191406 C 1.976562 4.703125 2.636719 4.425781 3.328125 4.425781 Z M 3.328125 4.425781 " clip-rule="nonzero"/></clipPath></defs><g clip-path="url(#ea062abf29)"><path fill="#ffffff" d="M 0.726562 0 L 44.273438 0 L 44.273438 29.03125 L 0.726562 29.03125 Z M 0.726562 0 " fill-opacity="1" fill-rule="nonzero"/><path fill="#ffffff" d="M 0.726562 0 L 44.273438 0 L 44.273438 29.03125 L 0.726562 29.03125 Z M 0.726562 0 " fill-opacity="1" fill-rule="nonzero"/></g><g clip-path="url(#3c818dab8b)"><g clip-path="url(#6b12f477e2)"><path fill="#f39d3c" d="M 0.726562 4.425781 L 44.265625 4.425781 L 44.265625 29.03125 L 0.726562 29.03125 Z M 0.726562 4.425781 " fill-opacity="1" fill-rule="nonzero"/></g></g><g fill="#ffffff" fill-opacity="1"><g transform="translate(19.024067, 20.721776)"><g><path d="M 1.171875 -1.90625 C 1.941406 -2.550781 2.554688 -3.085938 3.015625 -3.515625 C 3.484375 -3.953125 3.867188 -4.40625 4.171875 -4.875 C 4.472656 -5.34375 4.625 -5.800781 4.625 -6.25 C 4.625 -6.664062 4.523438 -6.988281 4.328125 -7.21875 C 4.140625 -7.457031 3.847656 -7.578125 3.453125 -7.578125 C 3.046875 -7.578125 2.734375 -7.441406 2.515625 -7.171875 C 2.296875 -6.898438 2.179688 -6.53125 2.171875 -6.0625 L 0.53125 -6.0625 C 0.5625 -7.03125 0.847656 -7.765625 1.390625 -8.265625 C 1.941406 -8.765625 2.632812 -9.015625 3.46875 -9.015625 C 4.382812 -9.015625 5.085938 -8.769531 5.578125 -8.28125 C 6.078125 -7.789062 6.328125 -7.144531 6.328125 -6.34375 C 6.328125 -5.71875 6.15625 -5.117188 5.8125 -4.546875 C 5.476562 -3.972656 5.09375 -3.472656 4.65625 -3.046875 C 4.21875 -2.628906 3.648438 -2.125 2.953125 -1.53125 L 6.515625 -1.53125 L 6.515625 -0.125 L 0.546875 -0.125 L 0.546875 -1.375 Z M 1.171875 -1.90625 "/></g></g></g></svg>