<svg xmlns="http://www.w3.org/2000/svg" xmlns:xlink="http://www.w3.org/1999/xlink" width="60" zoomAndPan="magnify" viewBox="0 0 45 30.000001" height="40" preserveAspectRatio="xMidYMid meet" version="1.0"><defs><g/><clipPath id="927bafbae2"><path d="M 0.726562 0 L 44.273438 0 L 44.273438 29.03125 L 0.726562 29.03125 Z M 0.726562 0 " clip-rule="nonzero"/></clipPath><clipPath id="cf33544d0e"><path d="M 0.726562 4.425781 L 44.273438 4.425781 L 44.273438 29.03125 L 0.726562 29.03125 Z M 0.726562 4.425781 " clip-rule="nonzero"/></clipPath><clipPath id="6c06ae304c"><path d="M 3.328125 4.425781 L 41.671875 4.425781 C 42.363281 4.425781 43.023438 4.703125 43.511719 5.191406 C 44 5.675781 44.273438 6.339844 44.273438 7.03125 L 44.273438 26.429688 C 44.273438 27.867188 43.109375 29.03125 41.671875 29.03125 L 3.328125 29.03125 C 2.636719 29.03125 1.976562 28.757812 1.488281 28.269531 C 1 27.78125 0.726562 27.121094 0.726562 26.429688 L 0.726562 7.03125 C 0.726562 6.339844 1 5.675781 1.488281 5.191406 C 1.976562 4.703125 2.636719 4.425781 3.328125 4.425781 Z M 3.328125 4.425781 " clip-rule="nonzero"/></clipPath></defs><g clip-path="url(#927bafbae2)"><path fill="#ffffff" d="M 0.726562 0 L 44.273438 0 L 44.273438 29.03125 L 0.726562 29.03125 Z M 0.726562 0 " fill-opacity="1" fill-rule="nonzero"/><path fill="#ffffff" d="M 0.726562 0 L 44.273438 0 L 44.273438 29.03125 L 0.726562 29.03125 Z M 0.726562 0 " fill-opacity="1" fill-rule="nonzero"/></g><g clip-path="url(#cf33544d0e)"><g clip-path="url(#6c06ae304c)"><path fill="#f39d3c" d="M 0.726562 4.425781 L 44.265625 4.425781 L 44.265625 29.03125 L 0.726562 29.03125 Z M 0.726562 4.425781 " fill-opacity="1" fill-rule="nonzero"/></g></g><g fill="#ffffff" fill-opacity="1"><g transform="translate(18.876637, 21.447582)"><g><path d="M 0.671875 -6.5 C 0.703125 -7.300781 0.984375 -7.921875 1.515625 -8.359375 C 2.046875 -8.796875 2.742188 -9.015625 3.609375 -9.015625 C 4.191406 -9.015625 4.691406 -8.910156 5.109375 -8.703125 C 5.535156 -8.503906 5.851562 -8.226562 6.0625 -7.875 C 6.28125 -7.53125 6.390625 -7.132812 6.390625 -6.6875 C 6.390625 -6.175781 6.253906 -5.742188 5.984375 -5.390625 C 5.722656 -5.046875 5.414062 -4.8125 5.0625 -4.6875 L 5.0625 -4.640625 C 5.519531 -4.492188 5.878906 -4.234375 6.140625 -3.859375 C 6.410156 -3.492188 6.546875 -3.019531 6.546875 -2.4375 C 6.546875 -1.957031 6.429688 -1.523438 6.203125 -1.140625 C 5.984375 -0.765625 5.65625 -0.46875 5.21875 -0.25 C 4.789062 -0.0390625 4.273438 0.0625 3.671875 0.0625 C 2.765625 0.0625 2.023438 -0.164062 1.453125 -0.625 C 0.878906 -1.082031 0.578125 -1.757812 0.546875 -2.65625 L 2.1875 -2.65625 C 2.207031 -2.257812 2.34375 -1.941406 2.59375 -1.703125 C 2.84375 -1.472656 3.191406 -1.359375 3.640625 -1.359375 C 4.046875 -1.359375 4.359375 -1.472656 4.578125 -1.703125 C 4.804688 -1.929688 4.921875 -2.226562 4.921875 -2.59375 C 4.921875 -3.070312 4.765625 -3.414062 4.453125 -3.625 C 4.148438 -3.832031 3.675781 -3.9375 3.03125 -3.9375 L 2.6875 -3.9375 L 2.6875 -5.328125 L 3.03125 -5.328125 C 4.175781 -5.328125 4.75 -5.710938 4.75 -6.484375 C 4.75 -6.828125 4.644531 -7.09375 4.4375 -7.28125 C 4.238281 -7.476562 3.945312 -7.578125 3.5625 -7.578125 C 3.175781 -7.578125 2.878906 -7.472656 2.671875 -7.265625 C 2.472656 -7.066406 2.359375 -6.8125 2.328125 -6.5 Z M 0.671875 -6.5 "/></g></g></g></svg>