<svg xmlns="http://www.w3.org/2000/svg" xmlns:xlink="http://www.w3.org/1999/xlink" width="60" zoomAndPan="magnify" viewBox="0 0 45 30.000001" height="40" preserveAspectRatio="xMidYMid meet" version="1.0"><defs><g/><clipPath id="aae7697d8e"><path d="M 0.726562 0 L 44.273438 0 L 44.273438 29.03125 L 0.726562 29.03125 Z M 0.726562 0 " clip-rule="nonzero"/></clipPath><clipPath id="c3ba3faedd"><path d="M 0.726562 4.425781 L 44.273438 4.425781 L 44.273438 29.03125 L 0.726562 29.03125 Z M 0.726562 4.425781 " clip-rule="nonzero"/></clipPath><clipPath id="4d05bfea85"><path d="M 3.328125 4.425781 L 41.671875 4.425781 C 42.363281 4.425781 43.023438 4.703125 43.511719 5.191406 C 44 5.675781 44.273438 6.339844 44.273438 7.03125 L 44.273438 26.429688 C 44.273438 27.867188 43.109375 29.03125 41.671875 29.03125 L 3.328125 29.03125 C 2.636719 29.03125 1.976562 28.757812 1.488281 28.269531 C 1 27.78125 0.726562 27.121094 0.726562 26.429688 L 0.726562 7.03125 C 0.726562 6.339844 1 5.675781 1.488281 5.191406 C 1.976562 4.703125 2.636719 4.425781 3.328125 4.425781 Z M 3.328125 4.425781 " clip-rule="nonzero"/></clipPath></defs><g clip-path="url(#aae7697d8e)"><path fill="#ffffff" d="M 0.726562 0 L 44.273438 0 L 44.273438 29.03125 L 0.726562 29.03125 Z M 0.726562 0 " fill-opacity="1" fill-rule="nonzero"/><path fill="#ffffff" d="M 0.726562 0 L 44.273438 0 L 44.273438 29.03125 L 0.726562 29.03125 Z M 0.726562 0 " fill-opacity="1" fill-rule="nonzero"/></g><g clip-path="url(#c3ba3faedd)"><g clip-path="url(#4d05bfea85)"><path fill="#f39d3c" d="M 0.726562 4.425781 L 44.265625 4.425781 L 44.265625 29.03125 L 0.726562 29.03125 Z M 0.726562 4.425781 " fill-opacity="1" fill-rule="nonzero"/></g></g><g fill="#ffffff" fill-opacity="1"><g transform="translate(18.502393, 21.447582)"><g><path d="M 0.5625 -1.71875 L 0.5625 -3.046875 L 4.515625 -8.703125 L 6.5 -8.703125 L 6.5 -3.1875 L 7.5625 -3.1875 L 7.5625 -1.71875 L 6.5 -1.71875 L 6.5 0 L 4.796875 0 L 4.796875 -1.71875 Z M 4.90625 -6.890625 L 2.4375 -3.1875 L 4.90625 -3.1875 Z M 4.90625 -6.890625 "/></g></g></g></svg>