<svg xmlns="http://www.w3.org/2000/svg" xmlns:xlink="http://www.w3.org/1999/xlink" width="60" zoomAndPan="magnify" viewBox="0 0 45 30.000001" height="40" preserveAspectRatio="xMidYMid meet" version="1.0"><defs><g/><clipPath id="e15d0d0021"><path d="M 0.726562 0 L 44.273438 0 L 44.273438 29.03125 L 0.726562 29.03125 Z M 0.726562 0 " clip-rule="nonzero"/></clipPath><clipPath id="24c8c6b309"><path d="M 0.726562 4.425781 L 44.273438 4.425781 L 44.273438 29.03125 L 0.726562 29.03125 Z M 0.726562 4.425781 " clip-rule="nonzero"/></clipPath><clipPath id="a8bab94e50"><path d="M 3.328125 4.425781 L 41.671875 4.425781 C 42.363281 4.425781 43.023438 4.703125 43.511719 5.191406 C 44 5.675781 44.273438 6.339844 44.273438 7.03125 L 44.273438 26.429688 C 44.273438 27.867188 43.109375 29.03125 41.671875 29.03125 L 3.328125 29.03125 C 2.636719 29.03125 1.976562 28.757812 1.488281 28.269531 C 1 27.78125 0.726562 27.121094 0.726562 26.429688 L 0.726562 7.03125 C 0.726562 6.339844 1 5.675781 1.488281 5.191406 C 1.976562 4.703125 2.636719 4.425781 3.328125 4.425781 Z M 3.328125 4.425781 " clip-rule="nonzero"/></clipPath></defs><g clip-path="url(#e15d0d0021)"><path fill="#ffffff" d="M 0.726562 0 L 44.273438 0 L 44.273438 29.03125 L 0.726562 29.03125 Z M 0.726562 0 " fill-opacity="1" fill-rule="nonzero"/><path fill="#ffffff" d="M 0.726562 0 L 44.273438 0 L 44.273438 29.03125 L 0.726562 29.03125 Z M 0.726562 0 " fill-opacity="1" fill-rule="nonzero"/></g><g clip-path="url(#24c8c6b309)"><g clip-path="url(#a8bab94e50)"><path fill="#f39d3c" d="M 0.726562 4.425781 L 44.265625 4.425781 L 44.265625 29.03125 L 0.726562 29.03125 Z M 0.726562 4.425781 " fill-opacity="1" fill-rule="nonzero"/></g></g><g fill="#ffffff" fill-opacity="1"><g transform="translate(18.60446, 21.447582)"><g><path d="M 6.5625 -7.359375 L 2.65625 -7.359375 L 2.65625 -5.28125 C 2.820312 -5.488281 3.0625 -5.660156 3.375 -5.796875 C 3.6875 -5.929688 4.019531 -6 4.375 -6 C 5.019531 -6 5.546875 -5.859375 5.953125 -5.578125 C 6.367188 -5.296875 6.671875 -4.929688 6.859375 -4.484375 C 7.046875 -4.046875 7.140625 -3.578125 7.140625 -3.078125 C 7.140625 -2.148438 6.875 -1.40625 6.34375 -0.84375 C 5.8125 -0.28125 5.0625 0 4.09375 0 C 3.164062 0 2.425781 -0.226562 1.875 -0.6875 C 1.332031 -1.144531 1.023438 -1.742188 0.953125 -2.484375 L 2.59375 -2.484375 C 2.664062 -2.160156 2.828125 -1.898438 3.078125 -1.703125 C 3.335938 -1.515625 3.664062 -1.421875 4.0625 -1.421875 C 4.539062 -1.421875 4.898438 -1.570312 5.140625 -1.875 C 5.378906 -2.175781 5.5 -2.570312 5.5 -3.0625 C 5.5 -3.5625 5.375 -3.941406 5.125 -4.203125 C 4.882812 -4.460938 4.523438 -4.59375 4.046875 -4.59375 C 3.710938 -4.59375 3.429688 -4.507812 3.203125 -4.34375 C 2.972656 -4.175781 2.8125 -3.953125 2.71875 -3.671875 L 1.09375 -3.671875 L 1.09375 -8.84375 L 6.5625 -8.84375 Z M 6.5625 -7.359375 "/></g></g></g></svg>