<svg xmlns="http://www.w3.org/2000/svg" xmlns:xlink="http://www.w3.org/1999/xlink" width="60" zoomAndPan="magnify" viewBox="0 0 45 30.000001" height="40" preserveAspectRatio="xMidYMid meet" version="1.0"><defs><g/><clipPath id="4e88e83dd3"><path d="M 0.726562 0 L 44.273438 0 L 44.273438 29.03125 L 0.726562 29.03125 Z M 0.726562 0 " clip-rule="nonzero"/></clipPath><clipPath id="8de8a45bf4"><path d="M 0.726562 4.425781 L 44.273438 4.425781 L 44.273438 29.03125 L 0.726562 29.03125 Z M 0.726562 4.425781 " clip-rule="nonzero"/></clipPath><clipPath id="3808fd9e74"><path d="M 3.328125 4.425781 L 41.671875 4.425781 C 42.363281 4.425781 43.023438 4.703125 43.511719 5.191406 C 44 5.675781 44.273438 6.339844 44.273438 7.03125 L 44.273438 26.429688 C 44.273438 27.867188 43.109375 29.03125 41.671875 29.03125 L 3.328125 29.03125 C 2.636719 29.03125 1.976562 28.757812 1.488281 28.269531 C 1 27.78125 0.726562 27.121094 0.726562 26.429688 L 0.726562 7.03125 C 0.726562 6.339844 1 5.675781 1.488281 5.191406 C 1.976562 4.703125 2.636719 4.425781 3.328125 4.425781 Z M 3.328125 4.425781 " clip-rule="nonzero"/></clipPath></defs><g clip-path="url(#4e88e83dd3)"><path fill="#ffffff" d="M 0.726562 0 L 44.273438 0 L 44.273438 29.03125 L 0.726562 29.03125 Z M 0.726562 0 " fill-opacity="1" fill-rule="nonzero"/><path fill="#ffffff" d="M 0.726562 0 L 44.273438 0 L 44.273438 29.03125 L 0.726562 29.03125 Z M 0.726562 0 " fill-opacity="1" fill-rule="nonzero"/></g><g clip-path="url(#8de8a45bf4)"><g clip-path="url(#3808fd9e74)"><path fill="#f39d3c" d="M 0.726562 4.425781 L 44.265625 4.425781 L 44.265625 29.03125 L 0.726562 29.03125 Z M 0.726562 4.425781 " fill-opacity="1" fill-rule="nonzero"/></g></g><g fill="#ffffff" fill-opacity="1"><g transform="translate(10.733996, 20.721776)"><g><path d="M 4.5625 -6.828125 C 5.363281 -6.828125 6.007812 -6.570312 6.5 -6.0625 C 7 -5.5625 7.25 -4.859375 7.25 -3.953125 L 7.25 0 L 5.546875 0 L 5.546875 -3.71875 C 5.546875 -4.25 5.410156 -4.65625 5.140625 -4.9375 C 4.878906 -5.226562 4.519531 -5.375 4.0625 -5.375 C 3.582031 -5.375 3.207031 -5.226562 2.9375 -4.9375 C 2.664062 -4.65625 2.53125 -4.25 2.53125 -3.71875 L 2.53125 0 L 0.84375 0 L 0.84375 -6.71875 L 2.53125 -6.71875 L 2.53125 -5.890625 C 2.757812 -6.179688 3.050781 -6.410156 3.40625 -6.578125 C 3.757812 -6.742188 4.144531 -6.828125 4.5625 -6.828125 Z M 4.5625 -6.828125 "/></g></g></g><g fill="#ffffff" fill-opacity="1"><g transform="translate(18.755001, 20.721776)"><g><path d="M 7.09375 -3.515625 C 7.09375 -3.265625 7.078125 -3.046875 7.046875 -2.859375 L 2.125 -2.859375 C 2.164062 -2.367188 2.332031 -1.984375 2.625 -1.703125 C 2.925781 -1.429688 3.296875 -1.296875 3.734375 -1.296875 C 4.367188 -1.296875 4.820312 -1.566406 5.09375 -2.109375 L 6.921875 -2.109375 C 6.722656 -1.460938 6.347656 -0.929688 5.796875 -0.515625 C 5.253906 -0.0976562 4.582031 0.109375 3.78125 0.109375 C 3.125 0.109375 2.539062 -0.03125 2.03125 -0.3125 C 1.519531 -0.601562 1.117188 -1.007812 0.828125 -1.53125 C 0.546875 -2.0625 0.40625 -2.671875 0.40625 -3.359375 C 0.40625 -4.054688 0.546875 -4.664062 0.828125 -5.1875 C 1.109375 -5.71875 1.503906 -6.125 2.015625 -6.40625 C 2.523438 -6.6875 3.113281 -6.828125 3.78125 -6.828125 C 4.414062 -6.828125 4.984375 -6.691406 5.484375 -6.421875 C 5.992188 -6.148438 6.390625 -5.757812 6.671875 -5.25 C 6.953125 -4.738281 7.09375 -4.160156 7.09375 -3.515625 Z M 5.328125 -4 C 5.316406 -4.4375 5.15625 -4.785156 4.84375 -5.046875 C 4.539062 -5.304688 4.171875 -5.4375 3.734375 -5.4375 C 3.304688 -5.4375 2.945312 -5.304688 2.65625 -5.046875 C 2.375 -4.796875 2.203125 -4.445312 2.140625 -4 Z M 5.328125 -4 "/></g></g></g><g fill="#ffffff" fill-opacity="1"><g transform="translate(26.242084, 20.721776)"><g><path d="M 7.1875 -6.71875 L 7.1875 0 L 5.46875 0 L 5.46875 -0.84375 C 5.25 -0.550781 4.960938 -0.320312 4.609375 -0.15625 C 4.265625 0 3.882812 0.078125 3.46875 0.078125 C 2.945312 0.078125 2.484375 -0.03125 2.078125 -0.25 C 1.671875 -0.46875 1.351562 -0.789062 1.125 -1.21875 C 0.894531 -1.65625 0.78125 -2.175781 0.78125 -2.78125 L 0.78125 -6.71875 L 2.484375 -6.71875 L 2.484375 -3.015625 C 2.484375 -2.484375 2.613281 -2.070312 2.875 -1.78125 C 3.144531 -1.5 3.507812 -1.359375 3.96875 -1.359375 C 4.4375 -1.359375 4.800781 -1.5 5.0625 -1.78125 C 5.332031 -2.070312 5.46875 -2.484375 5.46875 -3.015625 L 5.46875 -6.71875 Z M 7.1875 -6.71875 "/></g></g></g></svg>